<?xml version="1.0" encoding="utf-8"?>
<!-- Generator: Adobe Illustrator 26.0.3, SVG Export Plug-In . SVG Version: 6.00 Build 0)  -->
<svg version="1.0" id="katman_1" xmlns="http://www.w3.org/2000/svg" xmlns:xlink="http://www.w3.org/1999/xlink" x="0px" y="0px"
	 viewBox="0 0 600 450" style="enable-background:new 0 0 600 450;" xml:space="preserve">
<style type="text/css">
	.st0{fill-rule:evenodd;clip-rule:evenodd;fill:#2E276C;}
	.st1{fill:#EB5C1C;}
	.st2{fill:#FFFFFF;}
</style>
<g>
	<circle class="st0" cx="300.1" cy="225.4" r="152.1"/>
	<g>
		<path class="st1" d="M419.7,251.6c0-3.7-2.6-6.5-6.2-6.5c-3.6,0-6.2,2.7-6.2,6.5c0,3.7,2.6,6.5,6.2,6.5
			C417.1,258.1,419.7,255.3,419.7,251.6z M411.8,251.9v4.2h-1.4v-9.4h3.4c2,0,2.9,0.9,2.9,2.6c0,1-0.7,1.9-1.6,2v0
			c0.8,0.1,1.1,0.8,1.2,2.1c0.1,0.8,0.3,2.3,0.6,2.6h-1.6c-0.4-0.9-0.3-2.1-0.6-3.2c-0.2-0.8-0.7-1.1-1.5-1.1L411.8,251.9
			L411.8,251.9C411.9,251.9,411.8,251.9,411.8,251.9z M413.5,250.7c1.3,0,1.7-0.7,1.7-1.3c0-0.7-0.4-1.3-1.7-1.3h-1.7v2.7
			L413.5,250.7L413.5,250.7z M405.8,251.6c0-4.6,3.6-7.7,7.7-7.7c4.1,0,7.7,3.1,7.7,7.7c0,4.6-3.6,7.7-7.7,7.7
			C409.4,259.3,405.8,256.2,405.8,251.6z M379.1,258l-8.9-10.1l-8.8,10.1h-18.5l18.1-20.6l-18.1-20.6H362l9,10l8.6-10H398l-18,20.6
			l18.3,20.7H379.1z M307.3,258v-65h35.6v14.5h-20.5v9.3h20.5v14h-20.5v12.8h20.5V258L307.3,258L307.3,258z"/>
		<path class="st2" d="M292.3,192.9v26.6h-0.2c-3.3-3.9-7.5-5.2-12.3-5.2c-9.9,0-17.3,6.8-19.9,15.8c-3-9.9-10.6-16-22-16
			c-9.2,0-16.5,4.2-20.3,11.1v-8.5h-19.1v-9.3h20.8v-14.5h-37.9v65h17v-27.3h17c-0.5,2.1-0.8,4.3-0.8,6.4
			c0,13.6,10.2,23.1,23.2,23.1c11,0,18.2-5.2,22-14.7h-14.6c-2,2.9-3.5,3.7-7.4,3.7c-4.6,0-8.5-4.1-8.5-8.8h29.7
			c1.3,10.8,9.6,20.1,20.9,20.1c4.9,0,9.4-2.4,12.1-6.6h0.2v4.2h15v-65L292.3,192.9C292.3,192.9,292.3,192.9,292.3,192.9z
			 M229.9,230.8c0.9-4.1,4.1-6.8,8-6.8c4.3,0,7.3,2.6,8.1,6.8C246.1,230.8,229.9,230.8,229.9,230.8z M283.2,248.1
			c-5.5,0-9-5.2-9-10.7c0-5.8,3-11.4,9-11.4c6.2,0,8.7,5.6,8.7,11.4C291.9,242.9,289.3,248.1,283.2,248.1z"/>
	</g>
</g>
</svg>
